<svg width="188" height="31" viewBox="0 0 188 31" fill="none" xmlns="http://www.w3.org/2000/svg">
<g clip-path="url(#clip0_2001_92)">
<mask id="mask0_2001_92" style="mask-type:luminance" maskUnits="userSpaceOnUse" x="0" y="0" width="188" height="31">
<path d="M187.022 0.136195L0.0218494 0L0 30L187 30.1362L187.022 0.136195Z" fill="white"/>
</mask>
<g mask="url(#mask0_2001_92)">
<path d="M119.427 0.0871269C119.742 0.0873563 120.022 0.381138 120.021 0.711413L120.019 3.46371C120.019 3.79398 119.739 4.08736 119.424 4.08713L99.6144 4.0727C99.2991 4.07247 99.0191 3.77868 99.0194 3.44841L99.0214 0.696119C99.0216 0.365844 99.302 0.0724697 99.6173 0.0726993L119.427 0.0871269Z" fill="#2F80ED"/>
<path d="M59.9012 24.2986C59.7122 24.1125 59.368 24.0785 59.1269 24.298C57.8185 25.3277 56.235 26.0363 54.3594 26.0349C50.3674 26.032 47.393 22.7856 47.3958 18.9668C47.3986 15.1143 50.3605 11.8553 54.3353 11.8582C56.0732 11.8595 57.8278 12.5366 59.1347 13.6697C59.3754 13.9065 59.7023 13.9067 59.909 13.6703L61.8032 11.7454C62.0443 11.509 62.0445 11.1373 61.7694 10.8836C59.6543 9.0234 57.3837 8.04171 54.2349 8.03942C48.0232 8.0349 43.0124 12.9483 43.008 19.065C43.0035 25.1648 48.0072 30.0349 54.2361 30.0394C57.0064 30.0414 59.6912 29.0972 61.8092 27.0879C62.0331 26.8684 62.085 26.4798 61.8442 26.2601L59.9012 24.2986Z" fill="#2F80ED"/>
<path d="M90.4066 8.06613L87.4311 8.06396C87.0726 8.0637 86.8215 8.34178 86.8213 8.65482L86.8152 16.9852L76.2397 16.9775L76.2458 8.64712C76.246 8.33408 75.9952 8.05563 75.6368 8.05537L72.6254 8.05318C72.3028 8.05294 72.0158 8.33099 72.0156 8.64403L72.0004 29.4614C72.0002 29.7744 72.2868 30.0529 72.6094 30.0532L75.6208 30.0554C75.9792 30.0556 76.2304 29.7775 76.2306 29.4645L76.2369 20.7862L86.8124 20.7939L86.8061 29.4722C86.8059 29.7852 87.0566 30.0637 87.4151 30.064L90.3906 30.0661C90.7132 30.0664 91.0002 29.7883 91.0004 29.4753L91.0156 8.65787C91.0158 8.34483 90.7292 8.06636 90.4066 8.06613Z" fill="#2F80ED"/>
<path d="M110.283 8.42315C110.196 8.23462 110.056 8.08031 109.743 8.08008L109.429 8.07985C109.15 8.07965 108.993 8.23374 108.889 8.42214L99.0639 29.267C98.872 29.6781 99.133 30.0724 99.6035 30.0727L102.339 30.0747C102.844 30.0751 103.123 29.7669 103.245 29.4586L109.44 15.8587L109.527 15.8587L115.755 29.4677C115.982 29.8961 116.191 30.0848 116.661 30.0851L119.397 30.0871C119.867 30.0875 120.128 29.6764 119.938 29.2822L110.283 8.42315Z" fill="#2F80ED"/>
<path d="M135.994 8.09956L128.607 8.09418C128.259 8.09393 128.016 8.37201 128.016 8.68505L128 29.5024C128 29.8154 128.243 30.0939 128.591 30.0942L131.476 30.0963C131.789 30.0965 132.067 29.8184 132.067 29.5054L132.073 22.1141L136.001 22.117C139.843 22.1198 143.008 18.9395 143.011 15.0438C143.031 11.2525 139.853 8.10237 135.994 8.09956ZM135.726 18.2907L132.076 18.288L132.08 11.9576L135.73 11.9603C137.486 11.9615 138.962 13.2843 138.961 15.006C138.96 16.8669 137.482 18.2919 135.726 18.2907Z" fill="#2F80ED"/>
<path d="M155.439 8.11382L152.592 8.11175C152.287 8.11153 152.016 8.38959 152.016 8.70263L152 29.52C152 29.833 152.271 30.1115 152.576 30.1117L155.423 30.1138C155.728 30.114 155.999 29.8359 155.999 29.5229L156.015 8.70554C156.032 8.39251 155.744 8.11404 155.439 8.11382Z" fill="#2F80ED"/>
<path d="M186.376 8.13642L183.426 8.13427C183.07 8.13401 182.821 8.40946 182.821 8.71955L182.811 21.5881L182.776 21.5881L172.209 10.6929L170.113 8.52079C169.864 8.26221 169.509 8.12413 169.154 8.12388L168.62 8.12349C168.283 8.12324 168.016 8.38146 168.016 8.70877L168.001 29.3295C168 29.6568 168.267 29.9154 168.604 29.9157L171.537 29.9178C171.892 29.9181 172.141 29.6427 172.142 29.3326L172.151 15.9472L172.187 15.9472L172.222 15.9816L185.116 29.721C185.116 29.721 185.507 30.1347 185.862 30.135C186.378 30.1353 187 30.1875 187 29.5674L187.016 8.7226C186.98 8.39527 186.714 8.13666 186.376 8.13642Z" fill="#2F80ED"/>
<path d="M3.43899 8.00249L0.591994 8.00042C0.286994 8.0002 0.0157874 8.27826 0.0155594 8.5913L0.000397788 29.4087C0.000169826 29.7217 0.270971 30.0002 0.575971 30.0004L3.42297 30.0025C3.72797 30.0027 3.99916 29.7246 3.99939 29.4116L4.01455 8.59421C4.03178 8.28118 3.74399 8.00272 3.43899 8.00249Z" fill="#2F80ED"/>
<path d="M34.376 8.02509L31.426 8.02294C31.07 8.02268 30.8208 8.29813 30.8206 8.60822L30.8112 21.4768L30.7762 21.4768L20.2091 10.5816L18.1127 8.40947C17.8639 8.15088 17.509 8.01281 17.154 8.01255L16.62 8.01216C16.283 8.01191 16.0158 8.27013 16.0156 8.59744L16.0005 29.2182C16.0003 29.5455 16.2671 29.8041 16.6041 29.8044L19.5371 29.8065C19.8921 29.8067 20.1413 29.5313 20.1415 29.2212L20.1513 15.8358L20.1873 15.8359L20.2223 15.8703L33.1163 29.6097C33.1163 29.6097 33.507 30.0234 33.862 30.0236C34.378 30.024 34.9999 30.0762 35.0004 29.4561L35.0156 8.61128C34.9798 8.28394 34.714 8.02534 34.376 8.02509Z" fill="#2F80ED"/>
</g>
</g>
<defs>
<clipPath id="clip0_2001_92">
<rect width="187" height="30" fill="white" transform="translate(0.0218494) rotate(0.0417293)"/>
</clipPath>
</defs>
</svg>
