<svg width="48" height="22" viewBox="0 0 48 22" fill="none" xmlns="http://www.w3.org/2000/svg">
<path d="M8.40688 10.1238C9.09766 10.5037 9.09766 11.4963 8.40688 11.8762L1.48192 15.6849C0.815465 16.0515 4.27037e-08 15.5693 7.7604e-08 14.8087L4.27131e-07 7.19127C4.62031e-07 6.43067 0.815467 5.94851 1.48192 6.31506L8.40688 10.1238Z" fill="white"/>
<path d="M17.254 15V11.29H19.844C21.692 11.29 22.77 10.002 22.77 8.476C22.77 6.95 21.72 5.662 19.844 5.662H16.092V15H17.254ZM19.704 10.254H17.254V6.698H19.704C20.81 6.698 21.566 7.426 21.566 8.476C21.566 9.526 20.81 10.254 19.704 10.254ZM29.8108 15V13.964H25.4708V5.662H24.3088V15H29.8108ZM39.4395 15L35.6735 5.662H34.2315L30.4795 15H31.8095L32.6355 12.928H37.2835L38.1095 15H39.4395ZM36.9335 11.892H32.9715L34.9595 6.866L36.9335 11.892ZM43.6497 15V11.052L47.3177 5.662H45.9597L43.0617 10.002L40.1637 5.662H38.8057L42.4877 11.052V15H43.6497Z" fill="white"/>
</svg>
